<svg xmlns="http://www.w3.org/2000/svg" xmlns:xlink="http://www.w3.org/1999/xlink" width="1080" zoomAndPan="magnify" viewBox="0 0 810 809.999993" height="1080" preserveAspectRatio="xMidYMid meet" version="1.0"><defs><clipPath id="379296f2ae"><path d="M 21.550781 180.234375 L 652.144531 180.234375 L 652.144531 591.960938 L 21.550781 591.960938 Z M 21.550781 180.234375 " clip-rule="nonzero"/></clipPath></defs><g clip-path="url(#379296f2ae)"><path fill="#545454" d="M 475.738281 573.851562 C 388.410156 573.851562 317.367188 502.804688 317.367188 415.476562 C 317.367188 328.152344 388.410156 257.105469 475.738281 257.105469 C 563.0625 257.105469 634.109375 328.152344 634.109375 415.476562 C 634.109375 502.804688 563.0625 573.851562 475.738281 573.851562 Z M 638.347656 346.78125 C 629.457031 325.765625 616.734375 306.890625 600.527344 290.6875 C 584.328125 274.480469 565.449219 261.757812 544.433594 252.867188 C 525.441406 244.832031 505.417969 240.257812 484.792969 239.222656 L 484.792969 218.871094 L 495.53125 218.871094 C 501.15625 218.871094 505.722656 214.308594 505.722656 208.679688 L 505.722656 190.429688 C 505.722656 184.796875 501.15625 180.234375 495.53125 180.234375 L 455.945312 180.234375 C 450.316406 180.234375 445.753906 184.796875 445.753906 190.429688 L 445.753906 208.679688 C 445.753906 214.308594 450.316406 218.871094 455.945312 218.871094 L 466.683594 218.871094 L 466.683594 239.222656 C 446.058594 240.257812 426.035156 244.832031 407.039062 252.867188 C 403.171875 254.503906 399.382812 256.269531 395.664062 258.164062 L 215.945312 267.167969 L 369.097656 274.839844 C 362.730469 279.683594 356.671875 284.960938 350.945312 290.6875 C 348.34375 293.289062 345.839844 295.96875 343.414062 298.707031 L 165.636719 307.617188 L 330.035156 315.851562 C 323.957031 324.726562 318.703125 334.148438 314.3125 344.058594 L 80.3125 352.691406 L 307.792969 361.082031 C 303.980469 372.84375 301.4375 384.941406 300.175781 397.277344 L 21.550781 406.222656 L 299.257812 415.132812 C 299.257812 415.25 299.253906 415.363281 299.253906 415.476562 C 299.253906 428.511719 300.65625 441.335938 303.429688 453.84375 L 31.613281 462.566406 L 308.316406 471.449219 C 309.75 475.738281 311.355469 479.980469 313.128906 484.175781 C 314.660156 487.792969 316.308594 491.34375 318.066406 494.832031 L 150.742188 503.21875 L 328.027344 512.097656 C 333.773438 520.871094 340.304688 529.132812 347.597656 536.820312 L 190.988281 544.671875 L 365.648438 553.421875 C 378.238281 563.496094 392.09375 571.765625 407.039062 578.089844 C 428.804688 587.292969 451.917969 591.960938 475.738281 591.960938 C 499.558594 591.960938 522.671875 587.292969 544.433594 578.089844 C 565.449219 569.199219 584.328125 556.476562 600.527344 540.269531 C 616.734375 524.066406 629.457031 505.191406 638.347656 484.175781 C 647.550781 462.410156 652.21875 439.300781 652.21875 415.476562 C 652.21875 391.65625 647.550781 368.542969 638.347656 346.78125 " fill-opacity="1" fill-rule="nonzero"/></g><path fill="#545454" d="M 475.738281 397.96875 C 468.292969 397.96875 461.945312 402.671875 459.503906 409.265625 L 438.277344 412.199219 L 442.632812 433.898438 L 464.207031 428.175781 C 467.265625 430.917969 471.308594 432.585938 475.738281 432.585938 C 483.375 432.585938 489.851562 427.632812 492.148438 420.769531 L 618.078125 387.382812 L 489.730469 405.09375 C 486.582031 400.777344 481.488281 397.96875 475.738281 397.96875 " fill-opacity="1" fill-rule="nonzero"/><path fill="#545454" d="M 476.339844 295.136719 C 479.121094 295.136719 481.371094 292.886719 481.371094 290.109375 L 481.371094 269.984375 C 481.371094 267.207031 479.121094 264.953125 476.339844 264.953125 C 473.5625 264.953125 471.308594 267.207031 471.308594 269.984375 L 471.308594 290.109375 C 471.308594 292.886719 473.5625 295.136719 476.339844 295.136719 " fill-opacity="1" fill-rule="nonzero"/><path fill="#545454" d="M 536.328125 311.535156 C 537.121094 311.992188 537.984375 312.210938 538.839844 312.210938 C 540.582031 312.210938 542.269531 311.308594 543.203125 309.695312 L 553.261719 292.269531 C 554.652344 289.863281 553.828125 286.785156 551.421875 285.394531 C 549.015625 284.003906 545.9375 284.832031 544.550781 287.238281 L 534.488281 304.667969 C 533.097656 307.070312 533.921875 310.148438 536.328125 311.535156 " fill-opacity="1" fill-rule="nonzero"/><path fill="#545454" d="M 580.082031 355.730469 C 581.011719 357.34375 582.703125 358.25 584.441406 358.25 C 585.292969 358.25 586.160156 358.03125 586.953125 357.574219 L 604.382812 347.511719 C 606.789062 346.121094 607.609375 343.042969 606.222656 340.636719 C 604.832031 338.230469 601.757812 337.40625 599.351562 338.796875 L 581.921875 348.859375 C 579.515625 350.25 578.691406 353.324219 580.082031 355.730469 " fill-opacity="1" fill-rule="nonzero"/><path fill="#545454" d="M 595.875 415.878906 C 595.875 418.660156 598.125 420.910156 600.90625 420.910156 L 621.027344 420.910156 C 623.808594 420.910156 626.058594 418.660156 626.058594 415.878906 C 626.058594 413.101562 623.808594 410.851562 621.027344 410.851562 L 600.90625 410.851562 C 598.125 410.851562 595.875 413.101562 595.875 415.878906 " fill-opacity="1" fill-rule="nonzero"/><path fill="#545454" d="M 603.777344 484.089844 L 586.347656 474.027344 C 583.945312 472.636719 580.867188 473.460938 579.480469 475.867188 C 578.089844 478.273438 578.914062 481.351562 581.320312 482.742188 L 598.746094 492.800781 C 599.539062 493.257812 600.402344 493.476562 601.257812 493.476562 C 602.996094 493.476562 604.6875 492.574219 605.617188 490.960938 C 607.011719 488.554688 606.183594 485.476562 603.777344 484.089844 " fill-opacity="1" fill-rule="nonzero"/><path fill="#545454" d="M 542.15625 521.460938 C 540.765625 519.054688 537.691406 518.230469 535.28125 519.621094 C 532.875 521.007812 532.054688 524.085938 533.441406 526.492188 L 543.503906 543.921875 C 544.433594 545.535156 546.125 546.4375 547.867188 546.4375 C 548.71875 546.4375 549.582031 546.21875 550.375 545.761719 C 552.785156 544.375 553.609375 541.296875 552.21875 538.890625 L 542.15625 521.460938 " fill-opacity="1" fill-rule="nonzero"/><path fill="#545454" d="M 475.136719 535.414062 C 472.355469 535.414062 470.105469 537.667969 470.105469 540.445312 L 470.105469 560.570312 C 470.105469 563.347656 472.355469 565.597656 475.136719 565.597656 C 477.910156 565.597656 480.164062 563.347656 480.164062 560.570312 L 480.164062 540.445312 C 480.164062 537.667969 477.910156 535.414062 475.136719 535.414062 " fill-opacity="1" fill-rule="nonzero"/><path fill="#545454" d="M 415.144531 519.019531 C 412.738281 517.628906 409.664062 518.453125 408.273438 520.859375 L 398.214844 538.285156 C 396.824219 540.691406 397.648438 543.769531 400.054688 545.15625 C 400.84375 545.617188 401.710938 545.832031 402.566406 545.832031 C 404.300781 545.832031 405.992188 544.929688 406.925781 543.316406 L 416.988281 525.890625 C 418.378906 523.484375 417.550781 520.40625 415.144531 519.019531 " fill-opacity="1" fill-rule="nonzero"/><path fill="#545454" d="M 364.523438 472.980469 L 347.09375 483.042969 C 344.6875 484.433594 343.863281 487.507812 345.25 489.914062 C 346.183594 491.527344 347.875 492.433594 349.613281 492.433594 C 350.46875 492.433594 351.335938 492.214844 352.125 491.757812 L 369.554688 481.695312 C 371.957031 480.304688 372.78125 477.226562 371.394531 474.820312 C 370.003906 472.414062 366.929688 471.59375 364.523438 472.980469 " fill-opacity="1" fill-rule="nonzero"/><path fill="#545454" d="M 355.597656 414.675781 C 355.597656 411.894531 353.347656 409.644531 350.570312 409.644531 L 330.445312 409.644531 C 327.667969 409.644531 325.414062 411.894531 325.414062 414.675781 C 325.414062 417.449219 327.667969 419.703125 330.445312 419.703125 L 350.570312 419.703125 C 353.347656 419.703125 355.597656 417.449219 355.597656 414.675781 " fill-opacity="1" fill-rule="nonzero"/><path fill="#545454" d="M 370.15625 347.8125 L 352.730469 337.753906 C 350.324219 336.363281 347.246094 337.1875 345.855469 339.59375 C 344.464844 342 345.292969 345.078125 347.699219 346.464844 L 365.125 356.527344 C 365.917969 356.984375 366.785156 357.199219 367.636719 357.199219 C 369.375 357.199219 371.066406 356.300781 371.996094 354.683594 C 373.386719 352.277344 372.5625 349.203125 370.15625 347.8125 " fill-opacity="1" fill-rule="nonzero"/><path fill="#545454" d="M 407.972656 286.632812 C 406.582031 284.226562 403.507812 283.402344 401.097656 284.789062 C 398.691406 286.179688 397.867188 289.257812 399.257812 291.664062 L 409.320312 309.09375 C 410.253906 310.707031 411.941406 311.609375 413.683594 311.609375 C 414.535156 311.609375 415.398438 311.390625 416.195312 310.933594 C 418.601562 309.542969 419.421875 306.46875 418.035156 304.0625 L 407.972656 286.632812 " fill-opacity="1" fill-rule="nonzero"/></svg>