<svg xmlns="http://www.w3.org/2000/svg" xmlns:xlink="http://www.w3.org/1999/xlink" width="1080" zoomAndPan="magnify" viewBox="0 0 810 809.999993" height="1080" preserveAspectRatio="xMidYMid meet" version="1.0"><defs><clipPath id="2a41821106"><path d="M 357 179.90625 L 406 179.90625 L 406 228 L 357 228 Z M 357 179.90625 " clip-rule="nonzero"/></clipPath><clipPath id="08478a93e1"><path d="M 579 333 L 626.8125 333 L 626.8125 382 L 579 382 Z M 579 333 " clip-rule="nonzero"/></clipPath><clipPath id="04b927aa73"><path d="M 579 428 L 626.8125 428 L 626.8125 477 L 579 477 Z M 579 428 " clip-rule="nonzero"/></clipPath><clipPath id="345847fa4c"><path d="M 357 582 L 406 582 L 406 629.90625 L 357 629.90625 Z M 357 582 " clip-rule="nonzero"/></clipPath><clipPath id="fc39df5b6c"><path d="M 182.8125 333 L 231 333 L 231 382 L 182.8125 382 Z M 182.8125 333 " clip-rule="nonzero"/></clipPath><clipPath id="b68cbc4d0f"><path d="M 182.8125 428 L 231 428 L 231 477 L 182.8125 477 Z M 182.8125 428 " clip-rule="nonzero"/></clipPath></defs><path fill="#545454" d="M 477.914062 491.625 L 331.8125 491.625 C 316.78125 491.625 304.386719 479.230469 304.386719 464.199219 L 304.386719 345.789062 C 304.386719 330.496094 316.78125 318.101562 331.8125 318.101562 L 477.914062 318.101562 C 493.210938 318.101562 505.605469 330.496094 505.605469 345.789062 L 505.605469 464.199219 C 505.605469 479.230469 493.210938 491.625 477.914062 491.625 Z M 336.824219 436.773438 C 336.296875 436.773438 335.769531 436.773438 335.242188 436.507812 C 332.871094 435.71875 331.8125 433.082031 332.871094 430.707031 L 342.363281 406.972656 L 342.363281 406.707031 L 359.503906 363.988281 C 359.503906 363.988281 359.503906 363.722656 359.503906 363.722656 C 359.769531 363.195312 360.03125 362.667969 360.558594 362.40625 C 360.824219 361.875 361.351562 361.613281 361.878906 361.347656 C 361.878906 361.347656 361.878906 361.347656 362.140625 361.347656 C 362.667969 361.085938 362.933594 361.085938 363.460938 361.085938 C 363.988281 361.085938 364.515625 361.085938 365.042969 361.347656 C 365.042969 361.347656 365.304688 361.347656 365.304688 361.347656 C 365.832031 361.613281 366.363281 361.875 366.625 362.40625 C 367.152344 362.667969 367.417969 363.195312 367.679688 363.722656 C 367.679688 363.722656 367.679688 363.988281 367.679688 363.988281 L 384.820312 406.707031 L 384.820312 406.972656 L 394.316406 430.707031 C 395.105469 433.082031 394.050781 435.71875 391.941406 436.507812 C 389.570312 437.300781 386.929688 436.246094 386.140625 434.136719 L 377.703125 413.039062 L 349.484375 413.039062 L 341.042969 434.136719 C 340.253906 435.71875 338.671875 436.773438 336.824219 436.773438 Z M 437.300781 437.035156 L 413.832031 437.035156 C 411.457031 437.035156 409.609375 435.191406 409.609375 432.816406 C 409.609375 430.179688 411.457031 428.332031 413.832031 428.332031 L 432.816406 428.332031 L 432.816406 369.523438 L 413.832031 369.523438 C 411.457031 369.523438 409.609375 367.679688 409.609375 365.304688 C 409.609375 362.667969 411.457031 360.820312 413.832031 360.820312 L 460.507812 360.820312 C 462.882812 360.820312 464.992188 362.667969 464.992188 365.304688 C 464.992188 367.679688 462.882812 369.523438 460.507812 369.523438 L 441.519531 369.523438 L 441.519531 428.332031 L 460.507812 428.332031 C 462.882812 428.332031 464.992188 430.179688 464.992188 432.816406 C 464.992188 435.191406 462.882812 437.035156 460.507812 437.035156 Z M 374.273438 404.070312 L 363.460938 377.4375 L 352.910156 404.070312 Z M 374.273438 404.070312 " fill-opacity="1" fill-rule="evenodd"/><path fill="#545454" d="M 381.65625 327.066406 C 379.285156 327.066406 377.171875 324.957031 377.171875 322.582031 L 377.171875 223.160156 C 377.171875 220.789062 379.285156 218.679688 381.65625 218.679688 C 384.03125 218.679688 385.875 220.789062 385.875 223.160156 L 385.875 322.582031 C 385.875 324.957031 384.03125 327.066406 381.65625 327.066406 Z M 381.65625 327.066406 " fill-opacity="1" fill-rule="evenodd"/><g clip-path="url(#2a41821106)"><path fill="#545454" d="M 381.65625 227.644531 C 368.472656 227.644531 357.660156 216.832031 357.660156 203.648438 C 357.660156 190.722656 368.472656 179.910156 381.65625 179.910156 C 394.84375 179.910156 405.390625 190.722656 405.390625 203.648438 C 405.390625 216.832031 394.84375 227.644531 381.65625 227.644531 Z M 381.65625 227.644531 " fill-opacity="1" fill-rule="evenodd"/></g><path fill="#545454" d="M 428.335938 327.066406 C 425.960938 327.066406 423.851562 324.957031 423.851562 322.582031 L 423.851562 281.441406 C 423.851562 279.070312 425.960938 276.960938 428.335938 276.960938 C 430.707031 276.960938 432.816406 279.070312 432.816406 281.441406 L 432.816406 322.582031 C 432.816406 324.957031 430.707031 327.066406 428.335938 327.066406 Z M 428.335938 327.066406 " fill-opacity="1" fill-rule="evenodd"/><path fill="#545454" d="M 428.335938 285.925781 C 415.148438 285.925781 404.601562 275.113281 404.601562 261.929688 C 404.601562 249.007812 415.148438 238.195312 428.335938 238.195312 C 441.519531 238.195312 452.070312 249.007812 452.070312 261.929688 C 452.070312 275.113281 441.519531 285.925781 428.335938 285.925781 Z M 428.335938 285.925781 " fill-opacity="1" fill-rule="evenodd"/><path fill="#545454" d="M 475.011719 327.066406 C 472.640625 327.066406 470.53125 324.957031 470.53125 322.582031 L 470.53125 258.234375 C 470.53125 245.3125 481.078125 234.765625 494 234.765625 L 521.953125 234.765625 C 524.328125 234.765625 526.4375 236.875 526.4375 239.25 C 526.4375 241.621094 524.328125 243.730469 521.953125 243.730469 L 494 243.730469 C 486.089844 243.730469 479.496094 250.0625 479.496094 258.234375 L 479.496094 322.582031 C 479.496094 324.957031 477.386719 327.066406 475.011719 327.066406 Z M 475.011719 327.066406 " fill-opacity="1" fill-rule="evenodd"/><path fill="#545454" d="M 541.46875 262.984375 C 528.285156 262.984375 517.472656 252.433594 517.472656 239.25 C 517.472656 226.0625 528.285156 215.515625 541.46875 215.515625 C 554.65625 215.515625 565.203125 226.0625 565.203125 239.25 C 565.203125 252.433594 554.65625 262.984375 541.46875 262.984375 Z M 541.46875 262.984375 " fill-opacity="1" fill-rule="evenodd"/><path fill="#545454" d="M 334.980469 327.066406 C 332.34375 327.066406 330.496094 324.957031 330.496094 322.582031 L 330.496094 258.234375 C 330.496094 250.0625 323.902344 243.730469 315.992188 243.730469 L 288.039062 243.730469 C 285.398438 243.730469 283.554688 241.621094 283.554688 239.25 C 283.554688 236.875 285.398438 234.765625 288.039062 234.765625 L 315.992188 234.765625 C 328.914062 234.765625 339.199219 245.3125 339.199219 258.234375 L 339.199219 322.582031 C 339.199219 324.957031 337.351562 327.066406 334.980469 327.066406 Z M 334.980469 327.066406 " fill-opacity="1" fill-rule="evenodd"/><path fill="#545454" d="M 268.523438 262.984375 C 255.335938 262.984375 244.789062 252.433594 244.789062 239.25 C 244.789062 226.0625 255.335938 215.515625 268.523438 215.515625 C 281.707031 215.515625 292.257812 226.0625 292.257812 239.25 C 292.257812 252.433594 281.707031 262.984375 268.523438 262.984375 Z M 268.523438 262.984375 " fill-opacity="1" fill-rule="evenodd"/><path fill="#545454" d="M 583.929688 361.613281 L 501.121094 361.613281 C 498.746094 361.613281 496.636719 359.503906 496.636719 357.128906 C 496.636719 354.757812 498.746094 352.910156 501.121094 352.910156 L 583.929688 352.910156 C 586.300781 352.910156 588.148438 354.757812 588.148438 357.128906 C 588.148438 359.503906 586.300781 361.613281 583.929688 361.613281 Z M 583.929688 361.613281 " fill-opacity="1" fill-rule="evenodd"/><g clip-path="url(#08478a93e1)"><path fill="#545454" d="M 603.179688 381.128906 C 590.257812 381.128906 579.445312 370.316406 579.445312 357.128906 C 579.445312 343.945312 590.257812 333.394531 603.179688 333.394531 C 616.363281 333.394531 627.175781 343.945312 627.175781 357.128906 C 627.175781 370.316406 616.363281 381.128906 603.179688 381.128906 Z M 603.179688 381.128906 " fill-opacity="1" fill-rule="evenodd"/></g><path fill="#545454" d="M 525.910156 409.347656 L 501.121094 409.347656 C 498.746094 409.347656 496.636719 407.5 496.636719 404.863281 C 496.636719 402.488281 498.746094 400.644531 501.121094 400.644531 L 525.910156 400.644531 C 528.285156 400.644531 530.128906 402.488281 530.128906 404.863281 C 530.128906 407.5 528.285156 409.347656 525.910156 409.347656 Z M 525.910156 409.347656 " fill-opacity="1" fill-rule="evenodd"/><path fill="#545454" d="M 545.160156 428.859375 C 532.238281 428.859375 521.425781 418.046875 521.425781 404.863281 C 521.425781 391.941406 532.238281 381.128906 545.160156 381.128906 C 558.347656 381.128906 569.160156 391.941406 569.160156 404.863281 C 569.160156 418.046875 558.347656 428.859375 545.160156 428.859375 Z M 545.160156 428.859375 " fill-opacity="1" fill-rule="evenodd"/><path fill="#545454" d="M 583.929688 456.816406 L 501.121094 456.816406 C 498.746094 456.816406 496.636719 454.96875 496.636719 452.332031 C 496.636719 449.957031 498.746094 448.113281 501.121094 448.113281 L 583.929688 448.113281 C 586.300781 448.113281 588.148438 449.957031 588.148438 452.332031 C 588.148438 454.96875 586.300781 456.816406 583.929688 456.816406 Z M 583.929688 456.816406 " fill-opacity="1" fill-rule="evenodd"/><g clip-path="url(#04b927aa73)"><path fill="#545454" d="M 603.179688 476.328125 C 590.257812 476.328125 579.445312 465.519531 579.445312 452.332031 C 579.445312 439.410156 590.257812 428.597656 603.179688 428.597656 C 616.363281 428.597656 627.175781 439.410156 627.175781 452.332031 C 627.175781 465.519531 616.363281 476.328125 603.179688 476.328125 Z M 603.179688 476.328125 " fill-opacity="1" fill-rule="evenodd"/></g><path fill="#545454" d="M 381.65625 591.046875 C 379.285156 591.046875 377.171875 589.199219 377.171875 586.828125 L 377.171875 487.40625 C 377.171875 484.769531 379.285156 482.921875 381.65625 482.921875 C 384.03125 482.921875 385.875 484.769531 385.875 487.40625 L 385.875 586.828125 C 385.875 589.199219 384.03125 591.046875 381.65625 591.046875 Z M 381.65625 591.046875 " fill-opacity="1" fill-rule="evenodd"/><g clip-path="url(#345847fa4c)"><path fill="#545454" d="M 381.65625 630.078125 C 368.472656 630.078125 357.660156 619.265625 357.660156 606.078125 C 357.660156 592.894531 368.472656 582.34375 381.65625 582.34375 C 394.84375 582.34375 405.390625 592.894531 405.390625 606.078125 C 405.390625 619.265625 394.84375 630.078125 381.65625 630.078125 Z M 381.65625 630.078125 " fill-opacity="1" fill-rule="evenodd"/></g><path fill="#545454" d="M 428.335938 532.765625 C 425.960938 532.765625 423.851562 530.917969 423.851562 528.546875 L 423.851562 487.40625 C 423.851562 484.769531 425.960938 482.921875 428.335938 482.921875 C 430.707031 482.921875 432.816406 484.769531 432.816406 487.40625 L 432.816406 528.546875 C 432.816406 530.917969 430.707031 532.765625 428.335938 532.765625 Z M 428.335938 532.765625 " fill-opacity="1" fill-rule="evenodd"/><path fill="#545454" d="M 428.335938 571.796875 C 415.148438 571.796875 404.601562 560.984375 404.601562 547.796875 C 404.601562 534.613281 415.148438 524.0625 428.335938 524.0625 C 441.519531 524.0625 452.070312 534.613281 452.070312 547.796875 C 452.070312 560.984375 441.519531 571.796875 428.335938 571.796875 Z M 428.335938 571.796875 " fill-opacity="1" fill-rule="evenodd"/><path fill="#545454" d="M 521.953125 574.960938 L 494 574.960938 C 481.078125 574.960938 470.53125 564.675781 470.53125 551.753906 L 470.53125 487.40625 C 470.53125 484.769531 472.640625 482.921875 475.011719 482.921875 C 477.386719 482.921875 479.496094 484.769531 479.496094 487.40625 L 479.496094 551.753906 C 479.496094 559.664062 486.089844 566.257812 494 566.257812 L 521.953125 566.257812 C 524.328125 566.257812 526.4375 568.105469 526.4375 570.742188 C 526.4375 573.113281 524.328125 574.960938 521.953125 574.960938 Z M 521.953125 574.960938 " fill-opacity="1" fill-rule="evenodd"/><path fill="#545454" d="M 541.46875 594.476562 C 528.285156 594.476562 517.472656 583.664062 517.472656 570.742188 C 517.472656 557.554688 528.285156 546.742188 541.46875 546.742188 C 554.65625 546.742188 565.203125 557.554688 565.203125 570.742188 C 565.203125 583.664062 554.65625 594.476562 541.46875 594.476562 Z M 541.46875 594.476562 " fill-opacity="1" fill-rule="evenodd"/><path fill="#545454" d="M 315.992188 574.960938 L 288.039062 574.960938 C 285.398438 574.960938 283.554688 573.113281 283.554688 570.742188 C 283.554688 568.105469 285.398438 566.257812 288.039062 566.257812 L 315.992188 566.257812 C 323.902344 566.257812 330.496094 559.664062 330.496094 551.753906 L 330.496094 487.40625 C 330.496094 484.769531 332.34375 482.921875 334.980469 482.921875 C 337.351562 482.921875 339.199219 484.769531 339.199219 487.40625 L 339.199219 551.753906 C 339.199219 564.675781 328.914062 574.960938 315.992188 574.960938 Z M 315.992188 574.960938 " fill-opacity="1" fill-rule="evenodd"/><path fill="#545454" d="M 268.523438 594.476562 C 255.335938 594.476562 244.789062 583.664062 244.789062 570.742188 C 244.789062 557.554688 255.335938 546.742188 268.523438 546.742188 C 281.707031 546.742188 292.257812 557.554688 292.257812 570.742188 C 292.257812 583.664062 281.707031 594.476562 268.523438 594.476562 Z M 268.523438 594.476562 " fill-opacity="1" fill-rule="evenodd"/><path fill="#545454" d="M 308.871094 361.613281 L 226.0625 361.613281 C 223.691406 361.613281 221.582031 359.765625 221.582031 357.394531 C 221.582031 354.757812 223.691406 352.910156 226.0625 352.910156 L 308.871094 352.910156 C 311.246094 352.910156 313.089844 354.757812 313.089844 357.394531 C 313.089844 359.765625 311.246094 361.613281 308.871094 361.613281 Z M 308.871094 361.613281 " fill-opacity="1" fill-rule="evenodd"/><g clip-path="url(#fc39df5b6c)"><path fill="#545454" d="M 206.550781 381.128906 C 193.625 381.128906 182.8125 370.578125 182.8125 357.394531 C 182.8125 344.207031 193.625 333.394531 206.550781 333.394531 C 219.734375 333.394531 230.546875 344.207031 230.546875 357.394531 C 230.546875 370.578125 219.734375 381.128906 206.550781 381.128906 Z M 206.550781 381.128906 " fill-opacity="1" fill-rule="evenodd"/></g><path fill="#545454" d="M 308.871094 409.347656 L 284.082031 409.347656 C 281.707031 409.347656 279.597656 407.5 279.597656 405.125 C 279.597656 402.753906 281.707031 400.644531 284.082031 400.644531 L 308.871094 400.644531 C 311.246094 400.644531 313.089844 402.753906 313.089844 405.125 C 313.089844 407.5 311.246094 409.347656 308.871094 409.347656 Z M 308.871094 409.347656 " fill-opacity="1" fill-rule="evenodd"/><path fill="#545454" d="M 264.566406 428.859375 C 251.378906 428.859375 240.832031 418.3125 240.832031 405.125 C 240.832031 391.941406 251.378906 381.128906 264.566406 381.128906 C 277.753906 381.128906 288.566406 391.941406 288.566406 405.125 C 288.566406 418.3125 277.753906 428.859375 264.566406 428.859375 Z M 264.566406 428.859375 " fill-opacity="1" fill-rule="evenodd"/><path fill="#545454" d="M 308.871094 457.078125 L 226.0625 457.078125 C 223.691406 457.078125 221.582031 454.96875 221.582031 452.59375 C 221.582031 450.222656 223.691406 448.113281 226.0625 448.113281 L 308.871094 448.113281 C 311.246094 448.113281 313.089844 450.222656 313.089844 452.59375 C 313.089844 454.96875 311.246094 457.078125 308.871094 457.078125 Z M 308.871094 457.078125 " fill-opacity="1" fill-rule="evenodd"/><g clip-path="url(#b68cbc4d0f)"><path fill="#545454" d="M 206.550781 476.328125 C 193.625 476.328125 182.8125 465.78125 182.8125 452.59375 C 182.8125 439.410156 193.625 428.859375 206.550781 428.859375 C 219.734375 428.859375 230.546875 439.410156 230.546875 452.59375 C 230.546875 465.78125 219.734375 476.328125 206.550781 476.328125 Z M 206.550781 476.328125 " fill-opacity="1" fill-rule="evenodd"/></g></svg>