<svg xmlns="http://www.w3.org/2000/svg" xmlns:xlink="http://www.w3.org/1999/xlink" width="1080" zoomAndPan="magnify" viewBox="0 0 810 809.999993" height="1080" preserveAspectRatio="xMidYMid meet" version="1.0"><defs><clipPath id="d90bccc54d"><path d="M 146.34375 223 L 663.84375 223 L 663.84375 583 L 146.34375 583 Z M 146.34375 223 " clip-rule="nonzero"/></clipPath><clipPath id="9345c528a2"><path d="M 300 221.03125 L 611 221.03125 L 611 409 L 300 409 Z M 300 221.03125 " clip-rule="nonzero"/></clipPath></defs><g clip-path="url(#d90bccc54d)"><path fill="#545454" d="M 653.207031 536.605469 L 603.671875 536.605469 L 603.671875 349.992188 C 603.671875 345.371094 599.921875 341.621094 595.300781 341.621094 L 559.964844 341.621094 C 555.34375 341.621094 551.59375 345.371094 551.59375 349.992188 L 551.59375 536.605469 L 532.019531 536.605469 L 532.019531 431.605469 C 532.019531 426.980469 528.269531 423.234375 523.648438 423.234375 L 488.3125 423.234375 C 483.6875 423.234375 479.941406 426.980469 479.941406 431.605469 L 479.941406 536.605469 L 460.367188 536.605469 L 460.367188 384.59375 C 460.367188 379.972656 456.617188 376.222656 451.996094 376.222656 L 416.660156 376.222656 C 412.035156 376.222656 408.289062 379.972656 408.289062 384.59375 L 408.289062 536.605469 L 388.714844 536.605469 L 388.714844 464.328125 C 388.714844 459.707031 384.964844 455.957031 380.34375 455.957031 L 345.007812 455.957031 C 340.382812 455.957031 336.632812 459.707031 336.632812 464.328125 L 336.632812 536.605469 L 308.519531 536.605469 C 315.0625 524.457031 318.785156 510.578125 318.785156 495.839844 C 318.785156 452.078125 286.003906 415.847656 243.714844 410.355469 L 243.714844 234.316406 C 243.714844 228.535156 239.027344 223.851562 233.246094 223.851562 C 227.46875 223.851562 222.78125 228.535156 222.78125 234.316406 L 222.78125 410.175781 C 179.820312 415.046875 146.320312 451.597656 146.320312 495.839844 C 146.320312 543.390625 185.003906 582.070312 232.550781 582.070312 C 255.9375 582.070312 277.164062 572.699219 292.714844 557.535156 L 653.207031 557.535156 C 658.988281 557.535156 663.675781 552.851562 663.675781 547.070312 C 663.675781 541.289062 658.988281 536.605469 653.207031 536.605469 Z M 568.335938 358.367188 L 586.929688 358.367188 L 586.929688 536.605469 L 568.335938 536.605469 Z M 496.683594 439.976562 L 515.273438 439.976562 L 515.273438 536.605469 L 496.683594 536.605469 Z M 425.03125 392.96875 L 443.621094 392.96875 L 443.621094 536.605469 L 425.03125 536.605469 Z M 353.375 472.699219 L 371.964844 472.699219 L 371.964844 536.605469 L 353.375 536.605469 Z M 214.234375 531.433594 C 210.691406 529.34375 207.8125 526.554688 205.597656 523.0625 C 203.382812 519.574219 202.277344 516.179688 202.277344 512.886719 C 202.277344 510.972656 202.9375 509.335938 204.269531 507.96875 C 205.597656 506.605469 207.289062 505.925781 209.34375 505.925781 C 211.007812 505.925781 212.417969 506.453125 213.570312 507.515625 C 214.71875 508.582031 215.703125 510.15625 216.519531 512.246094 C 217.507812 514.726562 218.582031 516.800781 219.730469 518.464844 C 220.882812 520.128906 222.503906 521.503906 224.597656 522.585938 C 226.6875 523.664062 229.429688 524.207031 232.832031 524.207031 C 237.507812 524.207031 241.308594 523.117188 244.234375 520.9375 C 247.15625 518.757812 248.617188 516.039062 248.617188 512.777344 C 248.617188 510.191406 247.828125 508.09375 246.253906 506.480469 C 244.675781 504.871094 242.636719 503.640625 240.140625 502.789062 C 237.644531 501.9375 234.304688 501.035156 230.121094 500.078125 C 224.523438 498.765625 219.839844 497.234375 216.066406 495.480469 C 212.292969 493.726562 209.296875 491.335938 207.085938 488.308594 C 204.867188 485.28125 203.761719 481.515625 203.761719 477.015625 C 203.761719 472.726562 204.933594 468.917969 207.269531 465.589844 C 209.609375 462.257812 212.992188 459.699219 217.421875 457.910156 C 220.335938 456.734375 223.59375 455.949219 227.183594 455.546875 L 227.183594 448.949219 C 227.183594 445.625 229.90625 442.902344 233.230469 442.902344 C 236.558594 442.902344 239.28125 445.625 239.28125 448.949219 L 239.28125 455.625 C 241.519531 455.921875 243.585938 456.371094 245.453125 457.007812 C 248.945312 458.191406 251.839844 459.769531 254.144531 461.734375 C 256.445312 463.703125 258.128906 465.765625 259.191406 467.925781 C 260.253906 470.085938 260.785156 472.195312 260.785156 474.25 C 260.785156 476.128906 260.121094 477.820312 258.792969 479.328125 C 257.464844 480.832031 255.808594 481.585938 253.824219 481.585938 C 252.015625 481.585938 250.644531 481.136719 249.703125 480.230469 C 248.765625 479.328125 247.746094 477.847656 246.648438 475.792969 C 245.230469 472.851562 243.53125 470.554688 241.546875 468.910156 C 239.5625 467.261719 236.375 466.4375 231.980469 466.4375 C 227.90625 466.4375 224.621094 467.335938 222.125 469.125 C 219.625 470.910156 218.375 473.0625 218.375 475.578125 C 218.375 477.136719 218.800781 478.484375 219.652344 479.617188 C 220.5 480.75 221.671875 481.726562 223.160156 482.542969 C 224.648438 483.355469 226.152344 483.992188 227.675781 484.453125 C 229.199219 484.914062 231.714844 485.585938 235.222656 486.472656 C 239.617188 487.5 243.59375 488.632812 247.152344 489.875 C 250.714844 491.113281 253.742188 492.621094 256.242188 494.390625 C 258.738281 496.164062 260.6875 498.402344 262.085938 501.113281 C 263.484375 503.824219 264.183594 507.144531 264.183594 511.078125 C 264.183594 515.792969 262.972656 520.023438 260.542969 523.78125 C 258.117188 527.535156 254.566406 530.476562 249.890625 532.601562 C 246.738281 534.035156 243.1875 534.972656 239.253906 535.4375 C 239.257812 535.527344 239.277344 535.605469 239.277344 535.695312 L 239.277344 542.433594 C 239.277344 545.761719 236.554688 548.484375 233.230469 548.484375 C 229.902344 548.484375 227.179688 545.761719 227.179688 542.433594 L 227.179688 535.695312 C 227.179688 535.609375 227.199219 535.53125 227.203125 535.445312 C 222.183594 534.867188 217.851562 533.535156 214.234375 531.433594 Z M 214.234375 531.433594 " fill-opacity="1" fill-rule="nonzero"/></g><g clip-path="url(#9345c528a2)"><path fill="#545454" d="M 311.105469 408.507812 C 313.785156 408.507812 316.464844 407.484375 318.507812 405.441406 L 421.976562 301.972656 L 476.171875 356.167969 C 478.132812 358.128906 480.796875 359.230469 483.570312 359.230469 C 486.347656 359.230469 489.007812 358.128906 490.972656 356.167969 L 574.226562 272.910156 L 587.226562 285.914062 C 588.554688 287.242188 590.335938 287.957031 592.160156 287.957031 C 592.820312 287.957031 593.484375 287.863281 594.136719 287.671875 C 596.585938 286.949219 598.445312 284.941406 598.980469 282.441406 L 610.253906 229.824219 C 610.75 227.511719 610.042969 225.101562 608.367188 223.429688 C 606.691406 221.753906 604.285156 221.046875 601.972656 221.539062 L 549.351562 232.816406 C 546.855469 233.351562 544.847656 235.210938 544.125 237.660156 C 543.398438 240.113281 544.074219 242.761719 545.882812 244.570312 L 559.421875 258.113281 L 483.570312 333.96875 L 429.375 279.773438 C 425.289062 275.683594 418.660156 275.683594 414.574219 279.773438 L 303.703125 390.640625 C 299.617188 394.726562 299.617188 401.355469 303.703125 405.441406 C 305.75 407.484375 308.425781 408.507812 311.105469 408.507812 Z M 311.105469 408.507812 " fill-opacity="1" fill-rule="nonzero"/></g><path fill="#545454" d="M 364.953125 572.089844 L 327.457031 572.089844 C 322.832031 572.089844 319.082031 575.839844 319.082031 580.460938 C 319.082031 585.085938 322.832031 588.832031 327.457031 588.832031 L 364.953125 588.832031 C 369.578125 588.832031 373.324219 585.082031 373.324219 580.460938 C 373.324219 575.839844 369.578125 572.089844 364.953125 572.089844 Z M 364.953125 572.089844 " fill-opacity="1" fill-rule="nonzero"/><path fill="#545454" d="M 407.382812 572.089844 L 393.585938 572.089844 C 388.960938 572.089844 385.214844 575.839844 385.214844 580.460938 C 385.214844 585.085938 388.964844 588.832031 393.585938 588.832031 L 407.382812 588.832031 C 412.007812 588.832031 415.753906 585.082031 415.753906 580.460938 C 415.753906 575.839844 412.007812 572.089844 407.382812 572.089844 Z M 407.382812 572.089844 " fill-opacity="1" fill-rule="nonzero"/><path fill="#545454" d="M 545.734375 572.089844 L 437.625 572.089844 C 433.003906 572.089844 429.253906 575.839844 429.253906 580.460938 C 429.253906 585.085938 433.003906 588.832031 437.625 588.832031 L 545.734375 588.832031 C 550.355469 588.832031 554.105469 585.082031 554.105469 580.460938 C 554.105469 575.839844 550.355469 572.089844 545.734375 572.089844 Z M 545.734375 572.089844 " fill-opacity="1" fill-rule="nonzero"/></svg>