<svg xmlns="http://www.w3.org/2000/svg" xmlns:xlink="http://www.w3.org/1999/xlink" width="1080" zoomAndPan="magnify" viewBox="0 0 810 809.999993" height="1080" preserveAspectRatio="xMidYMid meet" version="1.0"><defs><clipPath id="e9198f681b"><path d="M 193.332031 273 L 497 273 L 497 616.023438 L 193.332031 616.023438 Z M 193.332031 273 " clip-rule="nonzero"/></clipPath><clipPath id="6b489962f5"><path d="M 193.332031 194 L 286 194 L 286 287 L 193.332031 287 Z M 193.332031 194 " clip-rule="nonzero"/></clipPath></defs><path fill="#545454" d="M 519.832031 557.761719 L 415.953125 557.761719 C 412.3125 557.761719 409.359375 554.808594 409.359375 551.167969 L 409.359375 536.820312 C 409.359375 521.492188 421.832031 509.023438 437.160156 509.023438 L 498.628906 509.023438 C 513.957031 509.023438 526.425781 521.492188 526.425781 536.820312 L 526.425781 551.167969 C 526.425781 554.808594 523.472656 557.761719 519.832031 557.761719 Z M 422.546875 544.574219 L 513.242188 544.574219 L 513.242188 536.820312 C 513.242188 528.761719 506.683594 522.207031 498.628906 522.207031 L 437.160156 522.207031 C 429.101562 522.207031 422.546875 528.761719 422.546875 536.820312 Z M 422.546875 544.574219 " fill-opacity="1" fill-rule="nonzero"/><path fill="#545454" d="M 467.894531 297.921875 C 455.429688 297.921875 445.289062 287.78125 445.289062 275.320312 C 445.289062 262.855469 455.429688 252.714844 467.894531 252.714844 C 480.359375 252.714844 490.5 262.855469 490.5 275.320312 C 490.5 287.78125 480.359375 297.921875 467.894531 297.921875 Z M 467.894531 265.898438 C 462.699219 265.898438 458.472656 270.125 458.472656 275.320312 C 458.472656 280.511719 462.699219 284.738281 467.894531 284.738281 C 473.085938 284.738281 477.3125 280.511719 477.3125 275.320312 C 477.3125 270.125 473.085938 265.898438 467.894531 265.898438 Z M 467.894531 265.898438 " fill-opacity="1" fill-rule="nonzero"/><path fill="#545454" d="M 509.972656 423.539062 C 509.246094 423.539062 508.511719 423.421875 507.789062 423.167969 C 504.355469 421.964844 502.546875 418.203125 503.75 414.765625 L 550.316406 281.90625 L 483.898438 281.90625 C 480.253906 281.90625 477.304688 278.957031 477.304688 275.316406 C 477.304688 271.675781 480.253906 268.722656 483.898438 268.722656 L 559.613281 268.722656 C 561.75 268.722656 563.753906 269.757812 564.992188 271.5 C 566.226562 273.246094 566.542969 275.480469 565.835938 277.496094 L 516.191406 419.125 C 515.242188 421.839844 512.695312 423.539062 509.972656 423.539062 Z M 509.972656 423.539062 " fill-opacity="1" fill-rule="nonzero"/><path fill="#545454" d="M 326.585938 423.539062 C 325.859375 423.539062 325.125 423.421875 324.40625 423.167969 C 320.96875 421.964844 319.160156 418.203125 320.363281 414.765625 L 369.957031 273.136719 C 370.882812 270.492188 373.378906 268.722656 376.179688 268.722656 L 451.894531 268.722656 C 455.535156 268.722656 458.488281 271.675781 458.488281 275.316406 C 458.488281 278.957031 455.535156 281.90625 451.894531 281.90625 L 380.855469 281.90625 L 332.804688 419.125 C 331.855469 421.839844 329.308594 423.539062 326.585938 423.539062 Z M 326.585938 423.539062 " fill-opacity="1" fill-rule="nonzero"/><path fill="#545454" d="M 376.191406 473.136719 C 345.203125 473.136719 319.988281 447.925781 319.988281 416.9375 C 319.988281 413.296875 322.941406 410.34375 326.582031 410.34375 L 425.800781 410.34375 C 429.445312 410.34375 432.394531 413.296875 432.394531 416.9375 C 432.394531 447.925781 407.183594 473.136719 376.191406 473.136719 Z M 333.679688 423.53125 C 336.859375 444.132812 354.710938 459.953125 376.191406 459.953125 C 397.671875 459.953125 415.523438 444.132812 418.707031 423.53125 Z M 333.679688 423.53125 " fill-opacity="1" fill-rule="nonzero"/><path fill="#545454" d="M 559.59375 473.136719 C 528.605469 473.136719 503.390625 447.925781 503.390625 416.9375 C 503.390625 413.296875 506.34375 410.34375 509.984375 410.34375 L 609.207031 410.34375 C 612.847656 410.34375 615.796875 413.296875 615.796875 416.9375 C 615.796875 447.925781 590.585938 473.136719 559.59375 473.136719 Z M 517.082031 423.53125 C 520.261719 444.132812 538.117188 459.953125 559.59375 459.953125 C 581.074219 459.953125 598.925781 444.132812 602.109375 423.53125 Z M 517.082031 423.53125 " fill-opacity="1" fill-rule="nonzero"/><path fill="#545454" d="M 425.800781 423.53125 C 423.078125 423.53125 420.53125 421.832031 419.582031 419.117188 L 369.96875 277.5 C 368.765625 274.0625 370.574219 270.300781 374.011719 269.097656 C 377.449219 267.894531 381.210938 269.703125 382.414062 273.140625 L 432.023438 414.757812 C 433.226562 418.195312 431.417969 421.957031 427.980469 423.160156 C 427.261719 423.410156 426.527344 423.53125 425.800781 423.53125 Z M 425.800781 423.53125 " fill-opacity="1" fill-rule="nonzero"/><path fill="#545454" d="M 609.207031 423.53125 C 606.484375 423.53125 603.933594 421.832031 602.984375 419.117188 L 553.375 277.5 C 552.167969 274.0625 553.980469 270.300781 557.414062 269.097656 C 560.851562 267.890625 564.613281 269.703125 565.816406 273.140625 L 615.425781 414.757812 C 616.632812 418.195312 614.820312 421.957031 611.386719 423.160156 C 610.664062 423.410156 609.929688 423.53125 609.207031 423.53125 Z M 609.207031 423.53125 " fill-opacity="1" fill-rule="nonzero"/><path fill="#545454" d="M 467.898438 522.207031 C 464.257812 522.207031 461.304688 519.253906 461.304688 515.613281 L 461.300781 291.332031 C 461.300781 287.691406 464.253906 284.738281 467.894531 284.738281 C 471.535156 284.738281 474.488281 287.6875 474.488281 291.332031 L 474.492188 515.613281 C 474.492188 519.253906 471.539062 522.207031 467.898438 522.207031 Z M 467.898438 522.207031 " fill-opacity="1" fill-rule="nonzero"/><g clip-path="url(#e9198f681b)"><path fill="#545454" d="M 489.53125 616.210938 L 200.515625 616.210938 C 196.875 616.210938 193.921875 613.257812 193.921875 609.617188 L 193.921875 279.679688 C 193.921875 276.039062 196.875 273.085938 200.515625 273.085938 C 204.15625 273.085938 207.109375 276.039062 207.109375 279.679688 L 207.109375 603.023438 L 482.9375 603.023438 L 482.9375 584.105469 C 482.9375 580.464844 485.890625 577.511719 489.53125 577.511719 C 493.171875 577.511719 496.125 580.464844 496.125 584.105469 L 496.125 609.617188 C 496.125 613.257812 493.171875 616.210938 489.53125 616.210938 Z M 489.53125 616.210938 " fill-opacity="1" fill-rule="nonzero"/></g><path fill="#545454" d="M 489.53125 238.019531 C 485.890625 238.019531 482.941406 235.066406 482.941406 231.425781 L 482.941406 207.496094 L 279.296875 207.496094 C 275.65625 207.496094 272.703125 204.542969 272.703125 200.902344 C 272.703125 197.261719 275.65625 194.3125 279.296875 194.3125 L 489.53125 194.3125 C 493.171875 194.3125 496.125 197.261719 496.125 200.902344 L 496.125 231.425781 C 496.125 235.066406 493.171875 238.019531 489.53125 238.019531 Z M 489.53125 238.019531 " fill-opacity="1" fill-rule="nonzero"/><g clip-path="url(#6b489962f5)"><path fill="#545454" d="M 279.265625 286.265625 L 200.46875 286.265625 C 197.800781 286.265625 195.398438 284.660156 194.378906 282.195312 C 193.359375 279.734375 193.921875 276.898438 195.808594 275.011719 L 274.605469 196.21875 C 276.488281 194.332031 279.324219 193.769531 281.789062 194.789062 C 284.253906 195.808594 285.859375 198.214844 285.859375 200.878906 L 285.859375 279.671875 C 285.859375 283.316406 282.90625 286.265625 279.265625 286.265625 Z M 216.386719 273.082031 L 272.675781 273.082031 L 272.675781 216.796875 Z M 216.386719 273.082031 " fill-opacity="1" fill-rule="nonzero"/></g><path fill="#545454" d="M 433.824219 246.851562 L 305.667969 246.851562 C 302.027344 246.851562 299.074219 243.898438 299.074219 240.257812 C 299.074219 236.617188 302.027344 233.667969 305.667969 233.667969 L 433.824219 233.667969 C 437.464844 233.667969 440.417969 236.617188 440.417969 240.257812 C 440.417969 243.898438 437.464844 246.851562 433.824219 246.851562 Z M 433.824219 246.851562 " fill-opacity="1" fill-rule="nonzero"/><path fill="#545454" d="M 320.761719 340.394531 L 249.695312 340.394531 C 246.054688 340.394531 243.101562 337.441406 243.101562 333.800781 C 243.101562 330.160156 246.054688 327.210938 249.695312 327.210938 L 320.761719 327.210938 C 324.402344 327.210938 327.355469 330.160156 327.355469 333.800781 C 327.355469 337.441406 324.402344 340.394531 320.761719 340.394531 Z M 320.761719 340.394531 " fill-opacity="1" fill-rule="nonzero"/><path fill="#545454" d="M 304.613281 386.539062 L 249.695312 386.539062 C 246.054688 386.539062 243.101562 383.585938 243.101562 379.945312 C 243.101562 376.304688 246.054688 373.355469 249.695312 373.355469 L 304.613281 373.355469 C 308.253906 373.355469 311.203125 376.304688 311.203125 379.945312 C 311.203125 383.585938 308.253906 386.539062 304.613281 386.539062 Z M 304.613281 386.539062 " fill-opacity="1" fill-rule="nonzero"/><path fill="#545454" d="M 294.128906 432.683594 L 249.695312 432.683594 C 246.054688 432.683594 243.101562 429.734375 243.101562 426.09375 C 243.101562 422.453125 246.054688 419.5 249.695312 419.5 L 294.128906 419.5 C 297.769531 419.5 300.722656 422.453125 300.722656 426.09375 C 300.722656 429.734375 297.769531 432.683594 294.128906 432.683594 Z M 294.128906 432.683594 " fill-opacity="1" fill-rule="nonzero"/><path fill="#545454" d="M 314.894531 478.828125 L 249.695312 478.828125 C 246.054688 478.828125 243.101562 475.878906 243.101562 472.238281 C 243.101562 468.597656 246.054688 465.644531 249.695312 465.644531 L 314.894531 465.644531 C 318.535156 465.644531 321.488281 468.597656 321.488281 472.238281 C 321.488281 475.878906 318.535156 478.828125 314.894531 478.828125 Z M 314.894531 478.828125 " fill-opacity="1" fill-rule="nonzero"/><path fill="#545454" d="M 386.226562 524.976562 L 249.695312 524.976562 C 246.054688 524.976562 243.101562 522.023438 243.101562 518.382812 C 243.101562 514.742188 246.054688 511.789062 249.695312 511.789062 L 386.226562 511.789062 C 389.867188 511.789062 392.820312 514.742188 392.820312 518.382812 C 392.820312 522.023438 389.867188 524.976562 386.226562 524.976562 Z M 386.226562 524.976562 " fill-opacity="1" fill-rule="nonzero"/><path fill="#545454" d="M 385.832031 571.121094 L 249.695312 571.121094 C 246.054688 571.121094 243.101562 568.167969 243.101562 564.527344 C 243.101562 560.886719 246.054688 557.933594 249.695312 557.933594 L 385.832031 557.933594 C 389.472656 557.933594 392.425781 560.886719 392.425781 564.527344 C 392.425781 568.167969 389.472656 571.121094 385.832031 571.121094 Z M 385.832031 571.121094 " fill-opacity="1" fill-rule="nonzero"/></svg>