<svg xmlns="http://www.w3.org/2000/svg" xmlns:xlink="http://www.w3.org/1999/xlink" width="1080" zoomAndPan="magnify" viewBox="0 0 810 809.999993" height="1080" preserveAspectRatio="xMidYMid meet" version="1.0"><defs><clipPath id="5a6a5ece9a"><path d="M 161.183594 289 L 602 289 L 602 650 L 161.183594 650 Z M 161.183594 289 " clip-rule="nonzero"/></clipPath><clipPath id="b5668ade56"><path d="M 209 161.183594 L 650 161.183594 L 650 522 L 209 522 Z M 209 161.183594 " clip-rule="nonzero"/></clipPath></defs><rect x="-81" width="972" fill="#ffffff" y="-80.999999" height="971.999992" fill-opacity="1"/><rect x="-81" width="972" fill="#dedede" y="-80.999999" height="971.999992" fill-opacity="1"/><path fill="#ffffff" d="M 405.507812 219.820312 C 303.085938 219.820312 219.820312 303.085938 219.820312 405.507812 C 219.820312 507.925781 303.085938 591.191406 405.507812 591.191406 C 507.925781 591.191406 591.191406 507.925781 591.191406 405.507812 C 591.191406 303.085938 507.925781 219.820312 405.507812 219.820312 Z M 405.507812 571.648438 C 313.933594 571.648438 239.367188 497.078125 239.367188 405.507812 C 239.367188 313.933594 313.933594 239.367188 405.507812 239.367188 C 497.078125 239.367188 571.648438 313.933594 571.648438 405.507812 C 571.648438 497.078125 497.078125 571.648438 405.507812 571.648438 Z M 405.507812 571.648438 " fill-opacity="1" fill-rule="nonzero"/><path fill="#ffffff" d="M 531.578125 415.964844 L 498.835938 346.28125 C 512.421875 343.742188 522.78125 331.914062 522.78125 317.550781 C 522.78125 312.175781 518.382812 307.777344 513.007812 307.777344 C 507.632812 307.777344 503.234375 312.175781 503.234375 317.550781 C 503.234375 322.925781 498.835938 327.324219 493.460938 327.324219 L 433.066406 327.324219 C 428.960938 315.984375 418.210938 307.777344 405.507812 307.777344 C 392.800781 307.777344 382.050781 315.984375 377.945312 327.324219 L 317.550781 327.324219 C 312.175781 327.324219 307.777344 322.925781 307.777344 317.550781 C 307.777344 312.175781 303.378906 307.777344 298.003906 307.777344 C 292.628906 307.777344 288.230469 312.175781 288.230469 317.550781 C 288.230469 331.914062 298.589844 343.742188 312.175781 346.28125 L 279.433594 415.964844 C 278.75 417.332031 278.457031 418.699219 278.457031 420.164062 L 278.457031 434.824219 C 278.457031 450.949219 291.652344 464.144531 307.777344 464.144531 L 346.867188 464.144531 C 362.992188 464.144531 376.1875 450.949219 376.1875 434.824219 L 376.1875 420.164062 C 376.1875 418.699219 375.894531 417.332031 375.210938 415.964844 L 342.765625 346.867188 L 377.945312 346.867188 C 380.976562 355.175781 387.425781 361.625 395.734375 364.65625 L 395.734375 460.136719 L 379.019531 476.75 C 377.261719 478.609375 376.1875 481.050781 376.1875 483.691406 L 376.1875 522.78125 L 366.414062 522.78125 C 361.039062 522.78125 356.640625 527.179688 356.640625 532.554688 C 356.640625 537.929688 361.039062 542.328125 366.414062 542.328125 L 444.597656 542.328125 C 449.972656 542.328125 454.371094 537.929688 454.371094 532.554688 C 454.371094 527.179688 449.972656 522.78125 444.597656 522.78125 L 434.824219 522.78125 L 434.824219 483.691406 C 434.824219 481.050781 433.75 478.609375 431.992188 476.75 L 415.277344 460.136719 L 415.277344 364.65625 C 423.585938 361.625 430.035156 355.175781 433.066406 346.867188 L 468.25 346.867188 L 435.800781 415.964844 C 435.117188 417.332031 434.824219 418.699219 434.824219 420.164062 L 434.824219 434.824219 C 434.824219 450.949219 448.019531 464.144531 464.144531 464.144531 L 503.234375 464.144531 C 519.363281 464.144531 532.554688 450.949219 532.554688 434.824219 L 532.554688 420.164062 C 532.554688 418.699219 532.261719 417.332031 531.578125 415.964844 Z M 356.640625 434.824219 C 356.640625 440.199219 352.242188 444.597656 346.867188 444.597656 L 307.777344 444.597656 C 302.402344 444.597656 298.003906 440.199219 298.003906 434.824219 L 298.003906 429.9375 L 356.640625 429.9375 Z M 350.972656 410.390625 L 303.671875 410.390625 L 327.324219 360.0625 Z M 415.277344 522.78125 L 395.734375 522.78125 L 395.734375 487.695312 L 405.507812 477.921875 L 415.277344 487.695312 Z M 405.507812 346.867188 C 400.132812 346.867188 395.734375 342.46875 395.734375 337.09375 C 395.734375 331.71875 400.132812 327.324219 405.507812 327.324219 C 410.882812 327.324219 415.277344 331.71875 415.277344 337.09375 C 415.277344 342.46875 410.882812 346.867188 405.507812 346.867188 Z M 483.691406 360.0625 L 507.339844 410.390625 L 460.039062 410.390625 Z M 513.007812 434.824219 C 513.007812 440.199219 508.609375 444.597656 503.234375 444.597656 L 464.144531 444.597656 C 458.769531 444.597656 454.371094 440.199219 454.371094 434.824219 L 454.371094 429.9375 L 513.007812 429.9375 Z M 513.007812 434.824219 " fill-opacity="1" fill-rule="nonzero"/><g clip-path="url(#5a6a5ece9a)"><path fill="#ffffff" d="M 592.089844 540.851562 L 557.535156 540.851562 C 552.140625 540.851562 547.761719 545.230469 547.761719 550.625 C 547.761719 556.023438 552.140625 560.398438 557.535156 560.398438 L 568.152344 560.398438 C 525.824219 604.992188 467.582031 630.285156 405.507812 630.285156 C 281.5625 630.285156 180.726562 529.449219 180.726562 405.507812 C 180.726562 369.625 188.917969 335.449219 205.066406 303.925781 C 207.523438 299.121094 205.625 293.230469 200.824219 290.769531 C 196.015625 288.3125 190.128906 290.214844 187.667969 295.011719 C 170.089844 329.328125 161.183594 366.5 161.183594 405.507812 C 161.183594 540.226562 270.785156 649.832031 405.507812 649.832031 C 472.992188 649.832031 536.308594 622.332031 582.316406 573.859375 L 582.316406 585.179688 C 582.316406 590.578125 586.691406 594.953125 592.089844 594.953125 C 597.488281 594.953125 601.863281 590.578125 601.863281 585.179688 L 601.863281 550.625 C 601.863281 545.230469 597.488281 540.851562 592.089844 540.851562 Z M 592.089844 540.851562 " fill-opacity="1" fill-rule="nonzero"/></g><g clip-path="url(#b5668ade56)"><path fill="#ffffff" d="M 405.507812 161.183594 C 338.019531 161.183594 274.703125 188.679688 228.695312 237.152344 L 228.695312 225.832031 C 228.695312 220.433594 224.320312 216.058594 218.921875 216.058594 C 213.527344 216.058594 209.148438 220.433594 209.148438 225.832031 L 209.148438 260.386719 C 209.148438 265.78125 213.527344 270.160156 218.921875 270.160156 L 253.476562 270.160156 C 258.875 270.160156 263.25 265.78125 263.25 260.386719 C 263.25 254.988281 258.875 250.613281 253.476562 250.613281 L 242.859375 250.613281 C 285.191406 206.019531 343.429688 180.726562 405.507812 180.726562 C 529.449219 180.726562 630.285156 281.5625 630.285156 405.507812 C 630.285156 441.386719 622.09375 475.5625 605.949219 507.085938 C 603.488281 511.890625 605.390625 517.78125 610.191406 520.242188 C 614.996094 522.699219 620.882812 520.796875 623.347656 516 C 640.921875 481.6875 649.832031 444.511719 649.832031 405.507812 C 649.832031 270.785156 540.226562 161.183594 405.507812 161.183594 Z M 405.507812 161.183594 " fill-opacity="1" fill-rule="nonzero"/></g></svg>