<svg xmlns="http://www.w3.org/2000/svg" xmlns:xlink="http://www.w3.org/1999/xlink" width="1080" zoomAndPan="magnify" viewBox="0 0 810 809.999993" height="1080" preserveAspectRatio="xMidYMid meet" version="1.0"><defs><clipPath id="617b31d880"><path d="M 401 202.25 L 507 202.25 L 507 416 L 401 416 Z M 401 202.25 " clip-rule="nonzero"/></clipPath><clipPath id="1d69ba9ea2"><path d="M 112.238281 422 L 697.988281 422 L 697.988281 572 L 112.238281 572 Z M 112.238281 422 " clip-rule="nonzero"/></clipPath><clipPath id="2dbccc1e7e"><path d="M 133 496 L 216 496 L 216 572 L 133 572 Z M 133 496 " clip-rule="nonzero"/></clipPath><clipPath id="6978974a69"><path d="M 592 495 L 675 495 L 675 572 L 592 572 Z M 592 495 " clip-rule="nonzero"/></clipPath><clipPath id="108bc0c396"><path d="M 195 547 L 221 547 L 221 572 L 195 572 Z M 195 547 " clip-rule="nonzero"/></clipPath><clipPath id="1c3cc4dd9b"><path d="M 590 547 L 616 547 L 616 572 L 590 572 Z M 590 547 " clip-rule="nonzero"/></clipPath></defs><path fill="#545454" d="M 260.449219 447.996094 L 260.417969 433.703125 L 273.792969 440.023438 L 264.039062 449.683594 Z M 260.417969 427.507812 L 278.054688 435.851562 L 287.992188 426.003906 L 260.386719 412.96875 Z M 260.386719 406.066406 L 260.355469 391.773438 L 305.382812 413.03125 L 305.382812 414.441406 L 300.597656 413.550781 L 292.714844 421.34375 Z M 260.355469 385.578125 L 305.414062 406.835938 L 305.414062 392.296875 L 260.355469 371.007812 Z M 260.324219 368.1875 L 260.296875 349.84375 L 305.382812 371.128906 L 305.382812 385.394531 L 260.296875 364.105469 Z M 260.296875 343.617188 L 305.382812 364.902344 L 305.382812 350.363281 L 260.480469 329.171875 L 244.285156 336.65625 L 215.574219 349.90625 L 215.574219 469.898438 L 223.089844 471.15625 L 223.089844 355.363281 L 260.265625 337.453125 Z M 260.296875 343.617188 " fill-opacity="1" fill-rule="evenodd"/><path fill="#545454" d="M 279.925781 329.660156 L 313.113281 344.964844 L 313.113281 415.882812 L 329.125 418.917969 L 329.277344 275.09375 L 373.96875 296.75 L 373.785156 326.472656 L 381.453125 322.945312 L 381.453125 293.007812 L 329.0625 265.585938 L 276.707031 294.265625 L 276.707031 328.15625 Z M 279.925781 329.660156 " fill-opacity="1" fill-rule="evenodd"/><path fill="#545454" d="M 382.648438 428.980469 C 382.679688 394.59375 382.804688 361.867188 382.832031 337.453125 L 420.007812 355.363281 L 420.007812 415.453125 L 427.523438 415.453125 L 427.523438 349.90625 L 398.8125 336.652344 L 382.617188 329.171875 L 337.714844 350.363281 L 337.714844 420.515625 Z M 382.648438 428.980469 " fill-opacity="1" fill-rule="evenodd"/><g clip-path="url(#617b31d880)"><path fill="#545454" d="M 404.886719 329.660156 L 438.042969 344.964844 L 438.042969 415.453125 L 454.054688 415.453125 L 454.238281 211.785156 L 498.898438 233.441406 L 498.746094 326.472656 L 506.382812 322.945312 L 506.382812 229.699219 L 454.023438 202.277344 L 401.636719 230.957031 L 401.636719 328.15625 Z M 404.886719 329.660156 " fill-opacity="1" fill-rule="evenodd"/></g><path fill="#545454" d="M 510.464844 471.460938 L 510.496094 454.898438 L 492.367188 463.457031 L 499.082031 472.042969 L 502.980469 472.042969 Z M 510.496094 447.996094 L 488.410156 458.425781 L 482.304688 450.605469 L 476.816406 449.621094 L 510.523438 433.703125 Z M 510.523438 427.507812 L 510.554688 412.9375 L 465.558594 434.195312 L 465.558594 447.628906 L 467.246094 447.9375 Z M 510.554688 406.066406 L 465.558594 427.324219 L 465.558594 413.0625 L 510.585938 391.804688 Z M 510.585938 385.578125 L 510.617188 371.039062 L 465.558594 392.324219 L 465.558594 406.863281 Z M 510.617188 368.1875 L 510.617188 364.105469 L 465.558594 385.394531 L 465.558594 371.128906 L 510.648438 349.84375 Z M 510.648438 343.617188 L 465.558594 364.902344 L 465.558594 350.363281 L 510.464844 329.171875 L 526.691406 336.65625 L 555.398438 349.90625 L 555.398438 467.902344 L 547.914062 468.488281 L 547.914062 355.363281 L 510.738281 337.453125 Z M 510.648438 343.617188 " fill-opacity="1" fill-rule="evenodd"/><g clip-path="url(#1d69ba9ea2)"><path fill="#545454" d="M 304.527344 492.902344 L 251.214844 484.253906 L 305.476562 430.820312 L 399.519531 531.242188 L 450.621094 532.5 L 419.519531 572.3125 L 521.320312 572.3125 L 597.910156 485.417969 L 680.636719 572.3125 L 697.753906 572.3125 L 603.125 472.136719 L 495.648438 480.695312 L 477.890625 457.964844 L 450.652344 453.179688 L 450.652344 423.457031 L 432.308594 423.457031 L 431.449219 481.828125 L 418.261719 469.46875 L 418.691406 443.917969 L 303.238281 422.199219 L 242.289062 482.472656 L 207.8125 476.707031 L 112.238281 572.3125 L 125.640625 572.3125 L 210.726562 489.40625 L 290.90625 572.3125 L 380.808594 572.3125 Z M 304.527344 492.902344 " fill-opacity="1" fill-rule="evenodd"/></g><g clip-path="url(#2dbccc1e7e)"><path fill="#545454" d="M 155.792969 562.746094 L 215.695312 502.65625 L 209.59375 496.335938 L 133.585938 572.3125 L 155.792969 572.3125 Z M 155.792969 562.746094 " fill-opacity="1" fill-rule="evenodd"/></g><g clip-path="url(#6978974a69)"><path fill="#545454" d="M 651.867188 562.746094 L 592.914062 501.492188 L 599.046875 495.140625 L 674.074219 572.3125 L 651.867188 572.3125 Z M 651.867188 562.746094 " fill-opacity="1" fill-rule="evenodd"/></g><path fill="#545454" d="M 271.308594 483.363281 L 310.691406 443.886719 L 304.554688 437.539062 L 260.480469 481.613281 Z M 271.308594 483.363281 " fill-opacity="1" fill-rule="evenodd"/><g clip-path="url(#108bc0c396)"><path fill="#545454" d="M 195.390625 547.101562 L 206.28125 547.101562 L 206.28125 557.988281 L 195.390625 557.988281 Z M 209.714844 547.101562 L 220.605469 547.101562 L 220.605469 557.988281 L 209.714844 557.988281 Z M 220.605469 561.425781 L 220.605469 572.3125 L 209.714844 572.3125 L 209.714844 561.425781 Z M 206.28125 572.3125 L 195.390625 572.3125 L 195.390625 561.425781 L 206.28125 561.425781 Z M 206.28125 572.3125 " fill-opacity="1" fill-rule="evenodd"/></g><g clip-path="url(#1c3cc4dd9b)"><path fill="#545454" d="M 590.488281 547.101562 L 601.378906 547.101562 L 601.378906 557.988281 L 590.488281 557.988281 Z M 604.8125 547.101562 L 615.703125 547.101562 L 615.703125 557.988281 L 604.8125 557.988281 Z M 615.703125 561.425781 L 615.703125 572.3125 L 604.8125 572.3125 L 604.8125 561.425781 Z M 601.378906 572.3125 L 590.488281 572.3125 L 590.488281 561.425781 L 601.378906 561.425781 Z M 601.378906 572.3125 " fill-opacity="1" fill-rule="evenodd"/></g><path fill="#545454" d="M 298.238281 463.824219 L 305.660156 463.824219 L 305.660156 471.246094 L 298.238281 471.246094 Z M 307.992188 463.824219 L 315.414062 463.824219 L 315.414062 471.246094 L 307.992188 471.246094 Z M 315.414062 473.578125 L 315.414062 481 L 307.992188 481 L 307.992188 473.578125 Z M 305.660156 481 L 298.238281 481 L 298.238281 473.578125 L 305.660156 473.578125 Z M 305.660156 481 " fill-opacity="1" fill-rule="evenodd"/></svg>