<svg xmlns="http://www.w3.org/2000/svg" xmlns:xlink="http://www.w3.org/1999/xlink" width="1080" zoomAndPan="magnify" viewBox="0 0 810 809.999993" height="1080" preserveAspectRatio="xMidYMid meet" version="1.0"><defs><clipPath id="36e8fb8b1e"><path d="M 163 147.570312 L 679 147.570312 L 679 662.070312 L 163 662.070312 Z M 163 147.570312 " clip-rule="nonzero"/></clipPath><clipPath id="1bc3c1ef4a"><path d="M 131.03125 399 L 175 399 L 175 452 L 131.03125 452 Z M 131.03125 399 " clip-rule="nonzero"/></clipPath></defs><path fill="#545454" d="M 359.128906 172.664062 C 353.050781 174.289062 346.796875 170.683594 345.167969 164.605469 C 343.539062 158.523438 347.144531 152.273438 353.226562 150.640625 C 359.304688 149.011719 365.554688 152.621094 367.1875 158.699219 C 368.820312 164.78125 365.207031 171.03125 359.128906 172.664062 Z M 359.128906 172.664062 " fill-opacity="1" fill-rule="nonzero"/><path fill="#545454" d="M 356.152344 174.890625 C 353.859375 174.890625 351.597656 174.289062 349.5625 173.117188 C 346.5 171.351562 344.3125 168.496094 343.394531 165.085938 C 342.480469 161.671875 342.949219 158.101562 344.71875 155.042969 C 346.484375 151.980469 349.335938 149.792969 352.75 148.878906 C 356.164062 147.960938 359.730469 148.433594 362.792969 150.199219 C 365.855469 151.964844 368.039062 154.816406 368.957031 158.230469 C 369.875 161.644531 369.40625 165.210938 367.636719 168.273438 C 365.871094 171.335938 363.015625 173.519531 359.601562 174.4375 C 358.460938 174.742188 357.304688 174.898438 356.15625 174.898438 Z M 356.175781 152.085938 C 355.359375 152.085938 354.527344 152.195312 353.699219 152.414062 C 348.605469 153.777344 345.570312 159.03125 346.9375 164.128906 C 348.300781 169.222656 353.554688 172.257812 358.652344 170.890625 C 363.746094 169.527344 366.78125 164.273438 365.417969 159.175781 C 364.273438 154.910156 360.398438 152.085938 356.175781 152.085938 Z M 356.175781 152.085938 " fill-opacity="1" fill-rule="nonzero"/><g clip-path="url(#36e8fb8b1e)"><path fill="#545454" d="M 421.375 662.402344 C 279.4375 662.402344 163.960938 546.925781 163.960938 404.984375 C 163.960938 401.953125 166.425781 399.488281 169.460938 399.488281 C 172.492188 399.488281 174.957031 401.953125 174.957031 404.984375 C 174.957031 540.859375 285.5 651.402344 421.375 651.402344 C 557.25 651.402344 667.792969 540.859375 667.792969 404.984375 C 667.792969 269.109375 557.25 158.566406 421.375 158.566406 C 418.335938 158.566406 415.878906 156.105469 415.878906 153.070312 C 415.878906 150.035156 418.339844 147.570312 421.375 147.570312 C 563.316406 147.570312 678.789062 263.046875 678.789062 404.984375 C 678.789062 546.925781 563.316406 662.402344 421.375 662.402344 Z M 421.375 662.402344 " fill-opacity="1" fill-rule="nonzero"/></g><path fill="#545454" d="M 189.050781 342.734375 C 187.421875 348.8125 181.175781 352.421875 175.089844 350.792969 C 169.011719 349.164062 165.402344 342.914062 167.03125 336.828125 C 168.664062 330.75 174.910156 327.140625 180.996094 328.769531 C 187.074219 330.402344 190.683594 336.648438 189.050781 342.734375 Z M 189.050781 342.734375 " fill-opacity="1" fill-rule="nonzero"/><path fill="#545454" d="M 178.039062 353.019531 C 176.910156 353.019531 175.761719 352.875 174.621094 352.566406 C 167.578125 350.679688 163.378906 343.410156 165.265625 336.367188 C 166.179688 332.953125 168.371094 330.097656 171.433594 328.335938 C 174.492188 326.570312 178.0625 326.09375 181.472656 327.011719 C 184.886719 327.929688 187.742188 330.117188 189.507812 333.175781 C 191.269531 336.238281 191.742188 339.800781 190.828125 343.21875 C 189.246094 349.121094 183.886719 353.027344 178.046875 353.027344 Z M 178.03125 330.222656 C 176.371094 330.222656 174.734375 330.652344 173.261719 331.507812 C 171.046875 332.789062 169.464844 334.84375 168.804688 337.316406 C 167.4375 342.40625 170.472656 347.667969 175.566406 349.03125 C 180.664062 350.398438 185.917969 347.363281 187.28125 342.269531 C 187.945312 339.800781 187.601562 337.222656 186.328125 335.011719 C 185.046875 332.796875 182.988281 331.214844 180.519531 330.550781 C 179.691406 330.332031 178.859375 330.222656 178.03125 330.222656 Z M 178.03125 330.222656 " fill-opacity="1" fill-rule="nonzero"/><path fill="#545454" d="M 213.082031 284.726562 C 209.9375 290.175781 202.964844 292.042969 197.515625 288.894531 C 192.066406 285.75 190.199219 278.78125 193.347656 273.328125 C 196.492188 267.878906 203.460938 266.011719 208.914062 269.160156 C 214.363281 272.304688 216.230469 279.277344 213.082031 284.726562 Z M 213.082031 284.726562 " fill-opacity="1" fill-rule="nonzero"/><path fill="#545454" d="M 203.191406 292.257812 C 200.945312 292.257812 198.671875 291.683594 196.597656 290.484375 C 193.539062 288.71875 191.351562 285.867188 190.433594 282.449219 C 189.523438 279.035156 189.992188 275.46875 191.757812 272.40625 C 193.523438 269.34375 196.375 267.160156 199.789062 266.242188 C 203.203125 265.328125 206.769531 265.796875 209.832031 267.5625 C 212.890625 269.328125 215.078125 272.183594 215.996094 275.59375 C 216.914062 279.007812 216.441406 282.578125 214.671875 285.636719 C 212.226562 289.878906 207.765625 292.25 203.191406 292.25 Z M 203.226562 269.460938 C 199.921875 269.460938 196.699219 271.179688 194.929688 274.242188 C 193.648438 276.453125 193.3125 279.03125 193.976562 281.5 C 194.636719 283.96875 196.21875 286.03125 198.433594 287.308594 C 203.003906 289.941406 208.863281 288.375 211.5 283.804688 C 214.132812 279.238281 212.566406 273.378906 207.996094 270.738281 C 206.492188 269.867188 204.847656 269.457031 203.226562 269.457031 Z M 203.226562 269.460938 " fill-opacity="1" fill-rule="nonzero"/><path fill="#545454" d="M 251.304688 234.914062 C 246.851562 239.367188 239.636719 239.367188 235.1875 234.914062 C 230.734375 230.460938 230.734375 223.246094 235.1875 218.796875 C 239.640625 214.34375 246.859375 214.34375 251.304688 218.796875 C 255.757812 223.25 255.757812 230.46875 251.304688 234.914062 Z M 251.304688 234.914062 " fill-opacity="1" fill-rule="nonzero"/><path fill="#545454" d="M 243.246094 240.078125 C 239.859375 240.078125 236.46875 238.785156 233.894531 236.210938 C 231.390625 233.710938 230.015625 230.386719 230.015625 226.855469 C 230.015625 223.328125 231.390625 220 233.894531 217.503906 C 239.050781 212.347656 247.445312 212.347656 252.601562 217.503906 C 257.757812 222.660156 257.757812 231.054688 252.601562 236.210938 C 250.019531 238.792969 246.632812 240.078125 243.246094 240.078125 Z M 243.246094 217.292969 C 240.800781 217.292969 238.347656 218.226562 236.484375 220.089844 C 234.675781 221.898438 233.683594 224.296875 233.683594 226.851562 C 233.683594 229.40625 234.683594 231.804688 236.484375 233.613281 C 240.210938 237.339844 246.28125 237.339844 250.007812 233.613281 C 253.738281 229.886719 253.738281 223.816406 250.007812 220.089844 C 248.144531 218.222656 245.695312 217.292969 243.246094 217.292969 Z M 243.246094 217.292969 " fill-opacity="1" fill-rule="nonzero"/><path fill="#545454" d="M 301.117188 196.691406 C 295.664062 199.839844 288.695312 197.972656 285.546875 192.523438 C 282.402344 187.074219 284.269531 180.101562 289.71875 176.957031 C 295.167969 173.808594 302.140625 175.675781 305.285156 181.125 C 308.433594 186.578125 306.566406 193.546875 301.117188 196.691406 Z M 301.117188 196.691406 " fill-opacity="1" fill-rule="nonzero"/><path fill="#545454" d="M 295.441406 200.058594 C 294.289062 200.058594 293.136719 199.910156 291.996094 199.601562 C 288.582031 198.6875 285.730469 196.496094 283.960938 193.433594 C 280.3125 187.113281 282.480469 179.007812 288.800781 175.359375 C 291.863281 173.597656 295.425781 173.125 298.84375 174.039062 C 302.257812 174.957031 305.109375 177.140625 306.875 180.203125 C 308.640625 183.265625 309.109375 186.828125 308.199219 190.246094 C 307.28125 193.660156 305.09375 196.511719 302.03125 198.277344 C 299.996094 199.457031 297.730469 200.058594 295.441406 200.058594 Z M 295.402344 177.257812 C 293.78125 177.257812 292.140625 177.671875 290.636719 178.539062 C 286.070312 181.179688 284.5 187.039062 287.132812 191.605469 C 288.414062 193.820312 290.472656 195.402344 292.941406 196.0625 C 295.410156 196.726562 297.984375 196.382812 300.199219 195.109375 C 304.761719 192.476562 306.335938 186.613281 303.695312 182.042969 C 301.925781 178.976562 298.707031 177.265625 295.398438 177.265625 Z M 295.402344 177.257812 " fill-opacity="1" fill-rule="nonzero"/><path fill="#545454" d="M 407.765625 434.84375 C 404.730469 434.84375 402.265625 432.382812 402.265625 429.347656 L 402.265625 299.179688 C 402.265625 296.144531 404.730469 293.679688 407.765625 293.679688 C 410.800781 293.679688 413.265625 296.144531 413.265625 299.179688 L 413.265625 429.347656 C 413.265625 432.382812 410.800781 434.84375 407.765625 434.84375 Z M 407.765625 434.84375 " fill-opacity="1" fill-rule="nonzero"/><path fill="#545454" d="M 505.898438 434.84375 L 407.769531 434.84375 C 404.730469 434.84375 402.273438 432.382812 402.273438 429.347656 C 402.273438 426.3125 404.738281 423.847656 407.769531 423.847656 L 505.898438 423.847656 C 508.933594 423.847656 511.398438 426.3125 511.398438 429.347656 C 511.398438 432.382812 508.933594 434.84375 505.898438 434.84375 Z M 505.898438 434.84375 " fill-opacity="1" fill-rule="nonzero"/><g clip-path="url(#1bc3c1ef4a)"><path fill="#545454" d="M 137.339844 451.152344 C 136.074219 451.152344 134.804688 450.722656 133.765625 449.835938 C 131.457031 447.863281 131.183594 444.390625 133.164062 442.082031 L 165.285156 401.414062 C 167.257812 399.101562 170.726562 398.835938 173.039062 400.808594 C 175.347656 402.785156 175.613281 406.253906 173.640625 408.5625 L 141.519531 449.234375 C 140.429688 450.503906 138.890625 451.160156 137.339844 451.160156 Z M 137.339844 451.152344 " fill-opacity="1" fill-rule="nonzero"/></g><path fill="#545454" d="M 207.09375 449.699219 C 205.542969 449.699219 204 449.042969 202.914062 447.773438 L 165.285156 408.558594 C 163.308594 406.25 163.582031 402.777344 165.890625 400.804688 C 168.199219 398.832031 171.671875 399.101562 173.644531 401.414062 L 211.277344 440.625 C 213.25 442.9375 212.976562 446.40625 210.667969 448.378906 C 209.632812 449.265625 208.359375 449.699219 207.09375 449.699219 Z M 207.09375 449.699219 " fill-opacity="1" fill-rule="nonzero"/><path fill="#545454" d="M 421.375 578.289062 C 325.8125 578.289062 248.074219 500.542969 248.074219 404.984375 C 248.074219 309.429688 325.820312 231.683594 421.375 231.683594 C 516.933594 231.683594 594.679688 309.429688 594.679688 404.984375 C 594.679688 500.542969 516.933594 578.289062 421.375 578.289062 Z M 421.375 242.679688 C 331.882812 242.679688 259.070312 315.492188 259.070312 404.984375 C 259.070312 494.480469 331.882812 567.292969 421.375 567.292969 C 510.871094 567.292969 583.679688 494.480469 583.679688 404.984375 C 583.679688 315.492188 510.871094 242.679688 421.375 242.679688 Z M 421.375 242.679688 " fill-opacity="1" fill-rule="nonzero"/></svg>